HIERARCHY
ROOT Hips
{
	OFFSET 0.000000 97.167313 0.000000
	CHANNELS 6 Xposition Yposition Zposition Xrotation Yrotation Zrotation
	JOINT Spine
	{
		OFFSET 0.000000 13.784798 0.064400
		CHANNELS 3 Xrotation Yrotation Zrotation
		JOINT Spine1
		{
			OFFSET 0.000000 12.037903 0.404700
			CHANNELS 3 Xrotation Yrotation Zrotation
			JOINT Spine2
			{
				OFFSET 0.000000 17.795601 0.420200
				CHANNELS 3 Xrotation Yrotation Zrotation
				JOINT Neck
				{
					OFFSET 0.000000 39.131302 11.954600
					CHANNELS 3 Xrotation Yrotation Zrotation
					JOINT Head
					{
						OFFSET 0.000000 14.456192 15.627699
						CHANNELS 3 Xrotation Yrotation Zrotation
						JOINT HeadTop_End
						{
							OFFSET 0.000000 15.703506 7.603401
							CHANNELS 3 Xrotation Yrotation Zrotation
							End Site
							{
								OFFSET 0.000000 17.447403 0.000000
							}
						}
					}
				}
				JOINT LeftShoulder
				{
					OFFSET 17.399500 24.608795 1.168800
					CHANNELS 3 Xrotation Yrotation Zrotation
					JOINT LeftArm
					{
						OFFSET 18.980635 5.765305 1.818600
						CHANNELS 3 Xrotation Yrotation Zrotation
						JOINT LeftForeArm
						{
							OFFSET 49.290169 0.000000 0.000000
							CHANNELS 3 Xrotation Yrotation Zrotation
							JOINT LeftHand
							{
								OFFSET 31.562012 0.000000 0.000000
								CHANNELS 3 Xrotation Yrotation Zrotation
								JOINT LeftHandThumb1
								{
									OFFSET 6.133995 -4.388519 7.076070
									CHANNELS 3 Xrotation Yrotation Zrotation
									JOINT LeftHandThumb2
									{
										OFFSET 6.037666 -3.485840 3.485847
										CHANNELS 3 Xrotation Yrotation Zrotation
										JOINT LeftHandThumb3
										{
											OFFSET 6.496506 -3.750763 3.750761
											CHANNELS 3 Xrotation Yrotation Zrotation
											JOINT LeftHandThumb4
											{
												OFFSET 5.616882 -3.242905 3.242910
												CHANNELS 3 Xrotation Yrotation Zrotation
												End Site
												{
													OFFSET -1.254608 7.132141 0.375429
												}
											}
										}
									}
								}
								JOINT LeftHandPinky1
								{
									OFFSET 18.920792 -0.453171 -11.426712
									CHANNELS 3 Xrotation Yrotation Zrotation
									JOINT LeftHandPinky2
									{
										OFFSET 4.919586 0.000000 0.000000
										CHANNELS 3 Xrotation Yrotation Zrotation
										JOINT LeftHandPinky3
										{
											OFFSET 5.233047 0.000000 0.000000
											CHANNELS 3 Xrotation Yrotation Zrotation
											JOINT LeftHandPinky4
											{
												OFFSET 5.571716 0.000000 0.000000
												CHANNELS 3 Xrotation Yrotation Zrotation
												End Site
												{
													OFFSET -3.459808 4.342407 -0.466164
												}
											}
										}
									}
								}
								JOINT LeftHandRing1
								{
									OFFSET 22.726120 -0.094986 -6.500475
									CHANNELS 3 Xrotation Yrotation Zrotation
									JOINT LeftHandRing2
									{
										OFFSET 6.408615 0.000000 0.000000
										CHANNELS 3 Xrotation Yrotation Zrotation
										JOINT LeftHandRing3
										{
											OFFSET 6.150223 0.000000 0.000000
											CHANNELS 3 Xrotation Yrotation Zrotation
											JOINT LeftHandRing4
											{
												OFFSET 6.145386 0.000000 0.000000
												CHANNELS 3 Xrotation Yrotation Zrotation
												End Site
												{
													OFFSET -3.671402 4.923981 -0.202372
												}
											}
										}
									}
								}
								JOINT LeftHandMiddle1
								{
									OFFSET 23.373947 0.000000 0.000001
									CHANNELS 3 Xrotation Yrotation Zrotation
									JOINT LeftHandMiddle2
									{
										OFFSET 6.996567 0.000000 0.000000
										CHANNELS 3 Xrotation Yrotation Zrotation
										JOINT LeftHandMiddle3
										{
											OFFSET 7.015945 0.000000 0.000000
											CHANNELS 3 Xrotation Yrotation Zrotation
											JOINT LeftHandMiddle4
											{
												OFFSET 7.721573 0.000000 0.000000
												CHANNELS 3 Xrotation Yrotation Zrotation
												End Site
												{
													OFFSET -4.651108 6.158463 0.251582
												}
											}
										}
									}
								}
								JOINT LeftHandIndex1
								{
									OFFSET 21.310577 -0.490082 6.209344
									CHANNELS 3 Xrotation Yrotation Zrotation
									JOINT LeftHandIndex2
									{
										OFFSET 7.536453 0.000000 0.000000
										CHANNELS 3 Xrotation Yrotation Zrotation
										JOINT LeftHandIndex3
										{
											OFFSET 7.512344 0.000000 0.000000
											CHANNELS 3 Xrotation Yrotation Zrotation
											JOINT LeftHandIndex4
											{
												OFFSET 10.212402 0.000000 0.000001
												CHANNELS 3 Xrotation Yrotation Zrotation
												End Site
												{
													OFFSET -5.180801 8.690506 1.388433
												}
											}
										}
									}
								}
							}
						}
					}
				}
				JOINT RightShoulder
				{
					OFFSET -17.399500 24.608795 1.168800
					CHANNELS 3 Xrotation Yrotation Zrotation
					JOINT RightArm
					{
						OFFSET -18.980635 5.765305 1.818600
						CHANNELS 3 Xrotation Yrotation Zrotation
						JOINT RightForeArm
						{
							OFFSET -49.290169 0.000000 0.000000
							CHANNELS 3 Xrotation Yrotation Zrotation
							JOINT RightHand
							{
								OFFSET -31.562012 0.000000 0.000000
								CHANNELS 3 Xrotation Yrotation Zrotation
								JOINT RightHandThumb1
								{
									OFFSET -6.133995 -4.388519 7.076070
									CHANNELS 3 Xrotation Yrotation Zrotation
									JOINT RightHandThumb2
									{
										OFFSET -6.037666 -3.485840 3.485847
										CHANNELS 3 Xrotation Yrotation Zrotation
										JOINT RightHandThumb3
										{
											OFFSET -6.496506 -3.750763 3.750761
											CHANNELS 3 Xrotation Yrotation Zrotation
											JOINT RightHandThumb4
											{
												OFFSET -5.616882 -3.242905 3.242910
												CHANNELS 3 Xrotation Yrotation Zrotation
												End Site
												{
													OFFSET 1.254608 7.132141 0.375429
												}
											}
										}
									}
								}
								JOINT RightHandIndex1
								{
									OFFSET -21.310577 -0.490082 6.209344
									CHANNELS 3 Xrotation Yrotation Zrotation
									JOINT RightHandIndex2
									{
										OFFSET -7.536453 0.000000 0.000000
										CHANNELS 3 Xrotation Yrotation Zrotation
										JOINT RightHandIndex3
										{
											OFFSET -7.512344 0.000000 0.000000
											CHANNELS 3 Xrotation Yrotation Zrotation
											JOINT RightHandIndex4
											{
												OFFSET -10.212402 0.000000 0.000001
												CHANNELS 3 Xrotation Yrotation Zrotation
												End Site
												{
													OFFSET 5.180801 8.690506 1.388433
												}
											}
										}
									}
								}
								JOINT RightHandMiddle1
								{
									OFFSET -23.373947 0.000000 0.000001
									CHANNELS 3 Xrotation Yrotation Zrotation
									JOINT RightHandMiddle2
									{
										OFFSET -6.996567 0.000000 0.000000
										CHANNELS 3 Xrotation Yrotation Zrotation
										JOINT RightHandMiddle3
										{
											OFFSET -7.015945 0.000000 0.000000
											CHANNELS 3 Xrotation Yrotation Zrotation
											JOINT RightHandMiddle4
											{
												OFFSET -7.721573 0.000000 0.000000
												CHANNELS 3 Xrotation Yrotation Zrotation
												End Site
												{
													OFFSET 4.651108 6.158463 0.251582
												}
											}
										}
									}
								}
								JOINT RightHandRing1
								{
									OFFSET -22.726120 -0.094986 -6.500475
									CHANNELS 3 Xrotation Yrotation Zrotation
									JOINT RightHandRing2
									{
										OFFSET -6.408615 0.000000 0.000000
										CHANNELS 3 Xrotation Yrotation Zrotation
										JOINT RightHandRing3
										{
											OFFSET -6.150223 0.000000 0.000000
											CHANNELS 3 Xrotation Yrotation Zrotation
											JOINT RightHandRing4
											{
												OFFSET -6.145386 0.000000 0.000000
												CHANNELS 3 Xrotation Yrotation Zrotation
												End Site
												{
													OFFSET 3.671402 4.923981 -0.202372
												}
											}
										}
									}
								}
								JOINT RightHandPinky1
								{
									OFFSET -18.920792 -0.453171 -11.426712
									CHANNELS 3 Xrotation Yrotation Zrotation
									JOINT RightHandPinky2
									{
										OFFSET -4.919586 0.000000 0.000000
										CHANNELS 3 Xrotation Yrotation Zrotation
										JOINT RightHandPinky3
										{
											OFFSET -5.233047 0.000000 0.000000
											CHANNELS 3 Xrotation Yrotation Zrotation
											JOINT RightHandPinky4
											{
												OFFSET -5.571716 0.000000 0.000000
												CHANNELS 3 Xrotation Yrotation Zrotation
												End Site
												{
													OFFSET 3.459808 4.342407 -0.466164
												}
											}
										}
									}
								}
							}
						}
					}
				}
			}
		}
	}
	JOINT LeftUpLeg
	{
		OFFSET 19.899099 -7.885101 -3.429500
		CHANNELS 3 Xrotation Yrotation Zrotation
		JOINT LeftLeg
		{
			OFFSET 1.745560 -36.997807 10.304700
			CHANNELS 3 Xrotation Yrotation Zrotation
			JOINT LeftFoot
			{
				OFFSET -1.745558 -29.803308 -13.615400
				CHANNELS 3 Xrotation Yrotation Zrotation
				JOINT LeftToeBase
				{
					OFFSET 1.181900 -18.539904 15.226099
					CHANNELS 3 Xrotation Yrotation Zrotation
					JOINT LeftToe_End
					{
						OFFSET -0.863701 1.402801 16.534700
						CHANNELS 3 Xrotation Yrotation Zrotation
						End Site
						{
							OFFSET 0.000000 16.616566 0.000000
						}
					}
				}
			}
		}
	}
	JOINT RightUpLeg
	{
		OFFSET -19.899099 -7.885101 -3.429500
		CHANNELS 3 Xrotation Yrotation Zrotation
		JOINT RightLeg
		{
			OFFSET -1.745560 -36.997807 10.304700
			CHANNELS 3 Xrotation Yrotation Zrotation
			JOINT RightFoot
			{
				OFFSET 1.745558 -29.803308 -13.615400
				CHANNELS 3 Xrotation Yrotation Zrotation
				JOINT RightToeBase
				{
					OFFSET -1.181900 -18.539904 15.226099
					CHANNELS 3 Xrotation Yrotation Zrotation
					JOINT RightToe_End
					{
						OFFSET 0.863701 1.402801 16.534700
						CHANNELS 3 Xrotation Yrotation Zrotation
						End Site
						{
							OFFSET 0.000000 16.616566 0.000000
						}
					}
				}
			}
		}
	}
}
MOTION
Frames: 6
Frame Time: 0.033333
0.106422 91.491653 1.921283 -7.169102 -4.333589 3.375758 5.362195 2.145655 -2.481155 1.489202 0.738294 -0.705218 1.483258 0.744496 -0.669459 2.305146 5.347684 1.627124 3.300934 -10.648420 2.511555 0.000000 0.000000 -0.000000 -0.595442 -16.331998 -20.041821 11.020222 0.132387 -33.902327 -0.001269 -88.792241 -0.001256 -131.311848 -7.197589 10.440793 -12.800128 -17.470108 4.121656 1.000136 0.731285 -1.438319 -7.335823 -0.421723 13.147356 -0.000001 -0.000001 0.000000 6.410328 8.363748 -80.414576 1.722726 4.149868 -45.074409 0.636269 2.657133 -26.928209 0.000002 0.000002 -0.000004 4.717018 8.075538 -77.582288 2.056297 4.456877 -49.517659 1.539983 3.959692 -42.490624 -0.000000 0.000000 0.000002 2.434389 7.296052 -69.364061 3.297851 5.266353 -64.088669 0.787096 2.934909 -30.019562 -0.000001 -0.000002 0.000004 -3.532548 4.254365 -63.954579 3.402086 5.315507 -65.218949 1.034626 3.326105 -34.549829 -0.000000 0.000001 0.000001 0.754318 18.436719 11.542202 10.691748 23.557104 38.362205 -0.000117 97.831518 0.000140 -34.546885 -20.180653 22.179149 20.470553 7.475587 18.843584 4.151740 -12.160934 -33.847986 -6.346185 -41.944038 -36.535501 0.000001 -0.000001 0.000002 -0.887082 1.427992 12.684516 1.917400 -3.767461 53.934329 3.057999 -4.374564 69.896789 -0.000000 0.000000 0.000001 0.770905 -5.199588 54.618830 5.563848 -4.568229 101.238573 4.771460 -4.655761 91.407903 0.000000 0.000000 -0.000008 6.934455 -8.544295 63.908769 2.909293 -4.317395 67.934714 1.862859 -3.727196 53.099455 -0.000002 0.000001 -0.000003 8.373382 -8.171754 73.989923 2.173687 -3.940976 57.745397 1.042018 -2.937905 39.049865 -0.000001 0.000002 0.000001 -10.547916 11.227795 7.867459 14.368561 6.172389 0.463608 4.926713 1.187555 -7.896672 -0.000030 -0.000005 -0.000005 -0.000000 -0.000000 -0.000000 10.552712 -15.764724 -7.216637 19.430461 -7.455267 -2.668811 -21.789536 -8.170238 9.892650 -2.368611 0.000015 0.000001 0.000000 0.000000 0.000000 
0.364809 91.220413 1.857074 -7.266152 -3.565752 3.702948 5.650110 1.979171 -2.456785 1.551704 0.724726 -0.740804 1.545539 0.701872 -0.709942 2.190802 5.347686 1.565042 3.067954 -10.895657 2.183553 0.000000 0.000000 -0.000000 -0.595442 -16.331998 -20.041821 10.579873 -0.458925 -33.857845 0.000921 -88.328013 0.000921 -131.529089 -6.908387 10.328272 -12.800127 -17.470109 4.121652 1.000135 0.731288 -1.438323 -7.335819 -0.421721 13.147363 0.000001 0.000001 0.000001 6.410330 8.363746 -80.414570 1.722723 4.149864 -45.074413 0.636267 2.657137 -26.928214 0.000003 -0.000000 -0.000000 4.717020 8.075534 -77.582295 2.056298 4.456878 -49.517666 1.539980 3.959692 -42.490617 -0.000001 0.000001 -0.000005 2.434388 7.296050 -69.364061 3.297853 5.266353 -64.088669 0.787095 2.934908 -30.019562 0.000003 -0.000001 0.000004 -3.532549 4.254361 -63.954579 3.402085 5.315501 -65.218949 1.034624 3.326105 -34.549832 -0.000000 0.000002 -0.000003 0.786859 18.413985 11.307454 10.477544 23.460668 38.231437 -0.000150 98.129854 0.000233 -34.671410 -20.508505 21.757755 20.470553 7.475581 18.843584 4.151737 -12.160931 -33.847983 -6.346179 -41.944031 -36.535501 0.000000 -0.000001 0.000003 -0.887085 1.427990 12.684511 1.917397 -3.767458 53.934329 3.057993 -4.374568 69.896789 -0.000001 -0.000001 -0.000001 0.770903 -5.199596 54.618827 5.563850 -4.568227 101.238567 4.771461 -4.655760 91.407903 0.000000 0.000000 -0.000008 6.934452 -8.544300 63.908775 2.909297 -4.317395 67.934721 1.862857 -3.727197 53.099451 -0.000001 0.000001 -0.000003 8.373380 -8.171758 73.989916 2.173685 -3.940977 57.745397 1.042013 -2.937907 39.049868 -0.000000 0.000001 0.000006 -11.891317 10.850553 7.553504 15.676850 6.214933 0.559351 6.051249 0.079195 -7.703493 -1.695652 0.000002 -0.000001 -0.000000 0.000002 0.000000 10.415843 -15.972778 -7.714109 20.359194 -7.707150 -2.633196 -22.380063 -8.585870 10.275010 -2.284211 -0.000008 0.000001 0.000000 0.000000 0.000000 
0.595754 90.996521 1.774422 -7.359197 -2.799776 4.064039 5.944609 1.821712 -2.457477 1.621568 0.710910 -0.778995 1.615124 0.661543 -0.753124 2.068009 5.343402 1.498139 2.840440 -11.151623 1.839004 -0.000000 -0.000000 0.000000 -0.595442 -16.332000 -20.041822 10.084270 -1.128283 -33.817974 0.000986 -87.777828 0.000863 -131.762955 -6.567435 10.188340 -12.800131 -17.470109 4.121647 1.000137 0.731289 -1.438321 -7.335823 -0.421722 13.147361 0.000001 -0.000000 -0.000002 6.410329 8.363747 -80.414576 1.722725 4.149869 -45.074413 0.636271 2.657138 -26.928212 -0.000000 0.000004 -0.000005 4.717017 8.075535 -77.582295 2.056298 4.456879 -49.517666 1.539980 3.959692 -42.490620 0.000002 0.000001 0.000002 2.434389 7.296050 -69.364061 3.297852 5.266354 -64.088669 0.787093 2.934908 -30.019562 0.000000 -0.000001 0.000004 -3.532553 4.254363 -63.954579 3.402084 5.315504 -65.218949 1.034624 3.326104 -34.549832 -0.000002 0.000001 0.000001 0.823411 18.390578 11.057223 10.239884 23.349533 38.087672 0.000037 98.444562 -0.000077 -34.800688 -20.860622 21.292089 20.470555 7.475576 18.843582 4.151739 -12.160927 -33.847986 -6.346183 -41.944038 -36.535495 0.000001 0.000001 -0.000000 -0.887084 1.427987 12.684513 1.917398 -3.767462 53.934329 3.058004 -4.374568 69.896796 -0.000001 -0.000001 -0.000001 0.770902 -5.199598 54.618823 5.563850 -4.568230 101.238573 4.771460 -4.655760 91.407903 -0.000001 0.000001 -0.000006 6.934453 -8.544305 63.908775 2.909301 -4.317392 67.934721 1.862857 -3.727194 53.099455 -0.000001 0.000002 -0.000003 8.373380 -8.171758 73.989923 2.173688 -3.940974 57.745397 1.042013 -2.937910 39.049865 -0.000000 0.000003 0.000003 -13.102277 10.501305 7.181214 16.659236 5.968206 0.685478 7.429414 -0.697637 -7.535595 -3.290585 -0.000007 0.000003 0.000000 0.000003 0.000000 10.254734 -16.434248 -8.149117 21.156562 -7.491044 -2.644328 -22.909889 -9.189836 10.420980 -2.199797 0.000012 -0.000004 -0.000000 -0.000005 -0.000000 
0.809773 90.792435 1.667397 -7.452100 -2.034702 4.441396 6.242963 1.670174 -2.468509 1.696031 0.696917 -0.819046 1.689257 0.622649 -0.797993 1.938410 5.334782 1.427970 2.615794 -11.418419 1.484295 -0.000001 -0.000000 -0.000000 -0.595442 -16.332000 -20.041822 9.565176 -1.824266 -33.778004 0.000201 -87.192966 0.000221 -132.009812 -6.205351 10.028938 -12.800130 -17.470111 4.121652 1.000134 0.731288 -1.438316 -7.335819 -0.421722 13.147364 -0.000000 0.000001 -0.000002 6.410330 8.363746 -80.414570 1.722727 4.149868 -45.074409 0.636271 2.657133 -26.928210 -0.000001 -0.000001 -0.000004 4.717020 8.075535 -77.582288 2.056297 4.456881 -49.517673 1.539980 3.959691 -42.490620 0.000001 0.000003 0.000000 2.434391 7.296049 -69.364061 3.297850 5.266353 -64.088662 0.787094 2.934905 -30.019559 0.000001 -0.000001 0.000004 -3.532549 4.254362 -63.954586 3.402086 5.315509 -65.218949 1.034622 3.326102 -34.549829 -0.000001 0.000001 0.000001 0.859502 18.375261 10.798020 9.988363 23.231847 37.938788 0.000178 98.767349 -0.000187 -34.933457 -21.224164 20.802962 20.470553 7.475578 18.843584 4.151741 -12.160932 -33.847989 -6.346183 -41.944038 -36.535498 0.000002 -0.000001 -0.000000 -0.887080 1.427985 12.684513 1.917395 -3.767464 53.934326 3.057999 -4.374571 69.896796 -0.000003 0.000001 -0.000001 0.770905 -5.199597 54.618823 5.563850 -4.568229 101.238567 4.771462 -4.655761 91.407903 0.000002 0.000000 -0.000008 6.934455 -8.544302 63.908769 2.909297 -4.317390 67.934721 1.862860 -3.727195 53.099451 -0.000000 0.000001 -0.000001 8.373383 -8.171760 73.989923 2.173686 -3.940977 57.745397 1.042019 -2.937907 39.049865 -0.000001 -0.000000 0.000006 -14.168034 10.220367 6.471751 17.399150 4.648660 1.062601 8.800522 -0.347162 -7.480167 -4.746732 0.000011 -0.000000 0.000000 -0.000001 -0.000000 10.039997 -17.106101 -8.533139 21.903431 -6.878541 -2.701169 -23.422170 -9.953522 10.363555 -2.115400 -0.000007 -0.000001 0.000000 -0.000003 -0.000000 
1.051842 90.606293 1.533081 -7.548489 -1.271360 4.838316 6.543084 1.521046 -2.496024 1.772326 0.682819 -0.860214 1.765177 0.584329 -0.843535 1.803636 5.326148 1.356091 2.391574 -11.688132 1.125602 -0.000000 -0.000000 -0.000000 -0.595442 -16.332000 -20.041819 9.045889 -2.517346 -33.740793 0.000807 -86.608663 0.000790 -132.255302 -5.841642 9.867264 -12.800128 -17.470109 4.121652 1.000134 0.731289 -1.438325 -7.335820 -0.421724 13.147358 -0.000000 -0.000001 0.000000 6.410332 8.363745 -80.414576 1.722724 4.149867 -45.074413 0.636269 2.657133 -26.928212 -0.000000 0.000001 0.000001 4.717019 8.075538 -77.582295 2.056297 4.456879 -49.517663 1.539979 3.959692 -42.490617 -0.000000 0.000003 -0.000002 2.434391 7.296054 -69.364061 3.297852 5.266352 -64.088669 0.787096 2.934907 -30.019562 -0.000000 0.000001 0.000006 -3.532549 4.254358 -63.954586 3.402087 5.315511 -65.218949 1.034622 3.326103 -34.549829 -0.000001 0.000003 0.000002 0.895090 18.363230 10.537775 9.732976 23.115466 37.792205 -0.000142 99.089946 0.000139 -35.067970 -21.586463 20.311492 20.470553 7.475581 18.843580 4.151738 -12.160929 -33.847986 -6.346186 -41.944038 -36.535495 0.000002 0.000000 0.000003 -0.887083 1.427992 12.684514 1.917399 -3.767456 53.934329 3.058002 -4.374566 69.896789 -0.000000 -0.000001 -0.000001 0.770902 -5.199589 54.618827 5.563850 -4.568230 101.238573 4.771461 -4.655760 91.407903 0.000001 0.000000 -0.000004 6.934452 -8.544298 63.908769 2.909297 -4.317392 67.934721 1.862860 -3.727195 53.099451 -0.000002 -0.000000 -0.000002 8.373382 -8.171752 73.989923 2.173686 -3.940974 57.745397 1.042019 -2.937909 39.049868 -0.000000 -0.000000 0.000002 -15.087615 9.934659 6.130826 17.871757 3.306595 1.474702 10.431307 0.089448 -7.855260 -5.775418 0.000004 0.000001 0.000000 0.000001 0.000000 9.755384 -17.936995 -8.931112 22.621291 -5.936286 -2.789566 -23.905367 -10.856804 10.157868 -2.030999 0.000002 0.000003 0.000000 0.000002 -0.000000 
1.346305 90.422310 1.377434 -7.651948 -0.510121 5.247014 6.842659 1.371480 -2.535015 1.847691 0.668685 -0.901754 1.840124 0.545721 -0.888740 1.665330 5.317567 1.284060 2.165544 -11.957654 0.769042 0.000000 0.000000 -0.000000 -0.595443 -16.332000 -20.041819 8.551265 -3.174165 -33.707424 0.000365 -86.063061 0.000410 -132.487761 -5.498398 9.718392 -12.800126 -17.470113 4.121654 1.000133 0.731285 -1.438318 -7.335820 -0.421722 13.147361 -0.000001 -0.000000 -0.000004 6.410328 8.363746 -80.414576 1.722728 4.149866 -45.074409 0.636271 2.657138 -26.928209 0.000000 -0.000000 0.000003 4.717018 8.075534 -77.582295 2.056297 4.456879 -49.517669 1.539981 3.959689 -42.490617 0.000000 0.000001 0.000005 2.434389 7.296049 -69.364068 3.297852 5.266353 -64.088669 0.787096 2.934907 -30.019559 0.000001 -0.000000 0.000001 -3.532547 4.254362 -63.954579 3.402087 5.315508 -65.218949 1.034623 3.326105 -34.549825 -0.000001 -0.000002 0.000001 0.929889 18.348933 10.283886 9.484074 23.008016 37.655004 -0.000056 99.403916 0.000072 -35.201914 -21.935328 19.839242 20.470553 7.475582 18.843580 4.151738 -12.160929 -33.847979 -6.346182 -41.944028 -36.535498 0.000002 0.000001 0.000001 -0.887082 1.427990 12.684513 1.917397 -3.767460 53.934329 3.058005 -4.374566 69.896789 0.000000 0.000002 0.000001 0.770904 -5.199597 54.618827 5.563846 -4.568228 101.238567 4.771460 -4.655760 91.407903 -0.000001 -0.000001 -0.000011 6.934453 -8.544300 63.908775 2.909293 -4.317395 67.934714 1.862857 -3.727194 53.099451 -0.000002 0.000002 -0.000003 8.373382 -8.171760 73.989923 2.173690 -3.940975 57.745397 1.042015 -2.937906 39.049865 -0.000000 0.000003 0.000003 -15.938219 9.531678 6.385134 18.385993 3.024304 1.832178 12.034770 -0.123487 -7.991506 -6.318979 0.000001 -0.000000 0.000000 -0.000001 -0.000000 9.396669 -18.878911 -9.378655 23.351290 -4.728985 -2.894311 -24.378429 -11.878882 9.847517 -1.946597 -0.000024 -0.000002 0.000000 -0.000002 -0.000000 
